<svg xmlns:xlink="http://www.w3.org/1999/xlink" xmlns="http://www.w3.org/2000/svg" width="24" height="24" class="ipc-icon ipc-icon--popularity-up TrendingButton__TrendingUpIcon-bb3vt8-3 iZVTzT" viewBox="0 0 24 24" fill="currentColor" role="presentation"><path d="M12 2C6.5 2 2 6.5 2 12s4.5 10 10 10 10-4.5 10-10S17.5 2 12 2zm0 18c-2.6 0-5-1.3-6.4-3.3l2.8-3.4 1.3 1.5c.4.4 1 .4 1.3 0l2.9-3.2 1.3 1.4c.3.3.8.1.8-.3V8.5c0-.3-.2-.5-.5-.5h-4c-.4 0-.6.5-.3.8l1.3 1.4-2.2 2.5L9 11.3c-.4-.4-1-.4-1.3 0L4.6 15c-.4-.9-.6-1.9-.6-3 0-4.4 3.6-8 8-8s8 3.6 8 8-3.6 8-8 8z" fill="#67AD4B"></path></svg>